<mxfile host="app.diagrams.net" modified="2023-10-13T10:57:38.385Z" agent="Mozilla/5.0 (Windows NT 10.0; Win64; x64) AppleWebKit/537.36 (KHTML, like Gecko) Chrome/117.0.0.0 Safari/537.36 Edg/117.0.2045.60" etag="0z2WpFRCgWlMleW6RcyL" version="22.0.4" type="github">
  <diagram name="第 1 页" id="XVweopWcRHPgvYZ2m_Qd">
    <mxGraphModel dx="1066" dy="725" grid="1" gridSize="10" guides="1" tooltips="1" connect="1" arrows="1" fold="1" page="1" pageScale="1" pageWidth="827" pageHeight="1169" math="0" shadow="0">
      <root>
        <mxCell id="0" />
        <mxCell id="1" parent="0" />
        <mxCell id="4Pa99XrtWjeAI7kEeQyA-1" value="4" style="rounded=1;whiteSpace=wrap;html=1;strokeColor=none;fontSize=16;fontFamily=Times New Roman;" parent="1" vertex="1">
          <mxGeometry x="500" y="130" width="90" height="40" as="geometry" />
        </mxCell>
        <mxCell id="4Pa99XrtWjeAI7kEeQyA-2" value="&lt;span style=&quot;font-size: 15px;&quot;&gt;Code&lt;/span&gt;" style="rounded=0;whiteSpace=wrap;html=1;fontFamily=Times New Roman;" parent="1" vertex="1">
          <mxGeometry x="250" y="90" width="120" height="30" as="geometry" />
        </mxCell>
        <mxCell id="4Pa99XrtWjeAI7kEeQyA-3" value="&lt;span style=&quot;font-size: 15px;&quot;&gt;Identifier&lt;/span&gt;" style="rounded=0;whiteSpace=wrap;html=1;fontFamily=Times New Roman;" parent="1" vertex="1">
          <mxGeometry x="370" y="90" width="120" height="30" as="geometry" />
        </mxCell>
        <mxCell id="4Pa99XrtWjeAI7kEeQyA-4" value="Length" style="rounded=0;whiteSpace=wrap;html=1;fontSize=15;fontFamily=Times New Roman;" parent="1" vertex="1">
          <mxGeometry x="250" y="120" width="240" height="30" as="geometry" />
        </mxCell>
        <mxCell id="4Pa99XrtWjeAI7kEeQyA-5" value="&lt;span style=&quot;font-size: 15px;&quot;&gt;Data&lt;/span&gt;" style="rounded=0;whiteSpace=wrap;html=1;fontFamily=Times New Roman;" parent="1" vertex="1">
          <mxGeometry x="250" y="150" width="240" height="30" as="geometry" />
        </mxCell>
        <mxCell id="4Pa99XrtWjeAI7kEeQyA-7" value="&lt;font style=&quot;font-size: 15px;&quot;&gt;0&lt;/font&gt;" style="rounded=1;whiteSpace=wrap;html=1;strokeColor=none;fontFamily=Times New Roman;" parent="1" vertex="1">
          <mxGeometry x="210" y="40" width="90" height="40" as="geometry" />
        </mxCell>
        <mxCell id="4Pa99XrtWjeAI7kEeQyA-8" value="8" style="rounded=1;whiteSpace=wrap;html=1;strokeColor=none;fontSize=15;fontFamily=Times New Roman;" parent="1" vertex="1">
          <mxGeometry x="325" y="40" width="90" height="40" as="geometry" />
        </mxCell>
        <mxCell id="4Pa99XrtWjeAI7kEeQyA-9" value="15" style="rounded=1;whiteSpace=wrap;html=1;strokeColor=none;fontSize=15;fontFamily=Times New Roman;" parent="1" vertex="1">
          <mxGeometry x="440" y="40" width="90" height="40" as="geometry" />
        </mxCell>
        <mxCell id="4Pa99XrtWjeAI7kEeQyA-10" value="2" style="rounded=1;whiteSpace=wrap;html=1;strokeColor=none;fontSize=15;fontFamily=Times New Roman;" parent="1" vertex="1">
          <mxGeometry x="500" y="100" width="90" height="30" as="geometry" />
        </mxCell>
        <mxCell id="4Pa99XrtWjeAI7kEeQyA-12" value="&lt;font style=&quot;font-size: 15px;&quot;&gt;N&lt;/font&gt;" style="rounded=1;whiteSpace=wrap;html=1;strokeColor=none;fontFamily=Times New Roman;" parent="1" vertex="1">
          <mxGeometry x="500" y="160" width="90" height="40" as="geometry" />
        </mxCell>
      </root>
    </mxGraphModel>
  </diagram>
</mxfile>
